<mxfile host="65bd71144e">
    <diagram name="Page-1" id="iHqk8ZUNuQEdpCMgI36Z">
        <mxGraphModel dx="1922" dy="912" grid="1" gridSize="10" guides="1" tooltips="1" connect="1" arrows="1" fold="1" page="1" pageScale="1" pageWidth="850" pageHeight="1100" math="0" shadow="0">
            <root>
                <mxCell id="0"/>
                <mxCell id="1" parent="0"/>
                <mxCell id="lD98qSv4HnmiHmUkWl3R-1" value="Emulator" style="rounded=0;whiteSpace=wrap;html=1;align=left;verticalAlign=top;" parent="1" vertex="1">
                    <mxGeometry y="120" width="660" height="310" as="geometry"/>
                </mxCell>
                <mxCell id="lD98qSv4HnmiHmUkWl3R-2" value="Local Web Server" style="rounded=0;whiteSpace=wrap;html=1;align=left;verticalAlign=top;" parent="1" vertex="1">
                    <mxGeometry x="810" y="30" width="280" height="320" as="geometry"/>
                </mxCell>
                <mxCell id="lD98qSv4HnmiHmUkWl3R-10" value="Top" style="rounded=0;whiteSpace=wrap;html=1;verticalAlign=top;align=left;" parent="1" vertex="1">
                    <mxGeometry x="20" y="160" width="310" height="120" as="geometry"/>
                </mxCell>
                <mxCell id="lD98qSv4HnmiHmUkWl3R-16" value="" style="endArrow=none;html=1;rounded=0;" parent="1" edge="1">
                    <mxGeometry width="50" height="50" relative="1" as="geometry">
                        <mxPoint x="330" y="260" as="sourcePoint"/>
                        <mxPoint x="330" y="220" as="targetPoint"/>
                    </mxGeometry>
                </mxCell>
                <mxCell id="lD98qSv4HnmiHmUkWl3R-20" value="Bottom" style="rounded=0;whiteSpace=wrap;html=1;verticalAlign=top;align=left;" parent="1" vertex="1">
                    <mxGeometry x="20" y="280" width="310" height="120" as="geometry"/>
                </mxCell>
                <mxCell id="lD98qSv4HnmiHmUkWl3R-21" value="" style="rounded=0;whiteSpace=wrap;html=1;verticalAlign=top;align=left;" parent="1" vertex="1">
                    <mxGeometry x="330" y="150" width="310" height="250" as="geometry"/>
                </mxCell>
                <mxCell id="lD98qSv4HnmiHmUkWl3R-12" value="Translation&lt;div&gt;NPC：This is an example&lt;/div&gt;&lt;div&gt;&lt;br&gt;&lt;/div&gt;" style="rounded=0;whiteSpace=wrap;html=1;align=left;verticalAlign=top;" parent="1" vertex="1">
                    <mxGeometry x="330" y="280" width="310" height="50" as="geometry"/>
                </mxCell>
                <mxCell id="lD98qSv4HnmiHmUkWl3R-13" value="&lt;div&gt;Kanji Viewer&lt;br&gt;&lt;div&gt;&lt;font style=&quot;font-size: 25px;&quot;&gt;&lt;br&gt;&lt;/font&gt;&lt;/div&gt;&lt;div&gt;&lt;font style=&quot;font-size: 25px;&quot;&gt;&lt;br&gt;&lt;/font&gt;&lt;/div&gt;&lt;div&gt;&lt;br&gt;&lt;/div&gt;&lt;/div&gt;" style="rounded=0;whiteSpace=wrap;html=1;verticalAlign=top;align=left;" parent="1" vertex="1">
                    <mxGeometry x="330" y="140" width="310" height="140" as="geometry"/>
                </mxCell>
                <mxCell id="lD98qSv4HnmiHmUkWl3R-40" style="edgeStyle=orthogonalEdgeStyle;rounded=0;orthogonalLoop=1;jettySize=auto;html=1;" parent="1" source="lD98qSv4HnmiHmUkWl3R-14" target="lD98qSv4HnmiHmUkWl3R-24" edge="1">
                    <mxGeometry relative="1" as="geometry">
                        <Array as="points">
                            <mxPoint x="950" y="375"/>
                        </Array>
                    </mxGeometry>
                </mxCell>
                <mxCell id="lD98qSv4HnmiHmUkWl3R-47" value="requests translation from&amp;nbsp;" style="edgeLabel;html=1;align=center;verticalAlign=middle;resizable=0;points=[];" parent="lD98qSv4HnmiHmUkWl3R-40" vertex="1" connectable="0">
                    <mxGeometry x="-0.2639" y="-4" relative="1" as="geometry">
                        <mxPoint as="offset"/>
                    </mxGeometry>
                </mxCell>
                <mxCell id="lD98qSv4HnmiHmUkWl3R-14" value="&lt;div&gt;&lt;font style=&quot;font-size: 12px;&quot;&gt;Text History&lt;/font&gt;&lt;/div&gt;&lt;div&gt;&lt;font style=&quot;font-size: 12px;&quot;&gt;NPC: たとえば&lt;/font&gt;&lt;/div&gt;&lt;div&gt;&lt;font style=&quot;font-size: 12px;&quot;&gt;NPC:　「漢字」&lt;/font&gt;&lt;/div&gt;" style="rounded=0;whiteSpace=wrap;html=1;align=left;verticalAlign=top;fontSize=7;" parent="1" vertex="1">
                    <mxGeometry x="330" y="330" width="310" height="70" as="geometry"/>
                </mxCell>
                <mxCell id="lD98qSv4HnmiHmUkWl3R-22" value="漢字" style="rounded=0;whiteSpace=wrap;html=1;fontSize=32;horizontal=1;" parent="1" vertex="1">
                    <mxGeometry x="330" y="160" width="130" height="120" as="geometry"/>
                </mxCell>
                <mxCell id="lD98qSv4HnmiHmUkWl3R-23" value="音読み：&lt;div&gt;訓読み：&lt;/div&gt;&lt;div&gt;意味：&lt;/div&gt;" style="rounded=0;whiteSpace=wrap;html=1;align=left;verticalAlign=top;" parent="1" vertex="1">
                    <mxGeometry x="460" y="160" width="180" height="120" as="geometry"/>
                </mxCell>
                <mxCell id="lD98qSv4HnmiHmUkWl3R-41" style="edgeStyle=orthogonalEdgeStyle;rounded=0;orthogonalLoop=1;jettySize=auto;html=1;entryX=1;entryY=0.5;entryDx=0;entryDy=0;exitX=1;exitY=0.5;exitDx=0;exitDy=0;" parent="1" source="lD98qSv4HnmiHmUkWl3R-14" target="lD98qSv4HnmiHmUkWl3R-12" edge="1">
                    <mxGeometry relative="1" as="geometry">
                        <Array as="points">
                            <mxPoint x="730" y="365"/>
                            <mxPoint x="730" y="305"/>
                        </Array>
                    </mxGeometry>
                </mxCell>
                <mxCell id="lD98qSv4HnmiHmUkWl3R-49" value="updates based&lt;div&gt;on translation&lt;/div&gt;" style="edgeLabel;html=1;align=center;verticalAlign=middle;resizable=0;points=[];" parent="lD98qSv4HnmiHmUkWl3R-41" vertex="1" connectable="0">
                    <mxGeometry x="0.0819" y="-2" relative="1" as="geometry">
                        <mxPoint as="offset"/>
                    </mxGeometry>
                </mxCell>
                <mxCell id="lD98qSv4HnmiHmUkWl3R-24" value="Translation API&amp;nbsp;" style="rounded=0;whiteSpace=wrap;html=1;verticalAlign=top;align=left;" parent="1" vertex="1">
                    <mxGeometry x="842.5" y="250" width="215" height="80" as="geometry"/>
                </mxCell>
                <mxCell id="lD98qSv4HnmiHmUkWl3R-25" value="Kanji API" style="rounded=0;whiteSpace=wrap;html=1;align=left;verticalAlign=top;" parent="1" vertex="1">
                    <mxGeometry x="842.5" y="155" width="215" height="80" as="geometry"/>
                </mxCell>
                <mxCell id="lD98qSv4HnmiHmUkWl3R-27" value="AI Model" style="rounded=0;whiteSpace=wrap;html=1;" parent="1" vertex="1">
                    <mxGeometry x="937.5" y="265" width="110" height="50" as="geometry"/>
                </mxCell>
                <mxCell id="lD98qSv4HnmiHmUkWl3R-28" value="Kanji JSON&lt;div&gt;Database&lt;/div&gt;" style="rounded=0;whiteSpace=wrap;html=1;" parent="1" vertex="1">
                    <mxGeometry x="937.5" y="175" width="110" height="50" as="geometry"/>
                </mxCell>
                <mxCell id="lD98qSv4HnmiHmUkWl3R-29" style="edgeStyle=orthogonalEdgeStyle;rounded=0;orthogonalLoop=1;jettySize=auto;html=1;" parent="1" edge="1">
                    <mxGeometry relative="1" as="geometry">
                        <mxPoint x="490" y="330" as="targetPoint"/>
                        <mxPoint x="490" y="460" as="sourcePoint"/>
                    </mxGeometry>
                </mxCell>
                <mxCell id="lD98qSv4HnmiHmUkWl3R-17" value="Both should be scrollable" style="shape=note;whiteSpace=wrap;html=1;backgroundOutline=1;darkOpacity=0.05;" parent="1" vertex="1">
                    <mxGeometry x="470" y="450" width="210" height="50" as="geometry"/>
                </mxCell>
                <mxCell id="lD98qSv4HnmiHmUkWl3R-30" style="edgeStyle=orthogonalEdgeStyle;rounded=0;orthogonalLoop=1;jettySize=auto;html=1;" parent="1" edge="1">
                    <mxGeometry relative="1" as="geometry">
                        <mxPoint x="520" y="400" as="targetPoint"/>
                        <mxPoint x="520" y="460" as="sourcePoint"/>
                    </mxGeometry>
                </mxCell>
                <mxCell id="lD98qSv4HnmiHmUkWl3R-32" style="edgeStyle=orthogonalEdgeStyle;rounded=0;orthogonalLoop=1;jettySize=auto;html=1;exitX=0.131;exitY=-0.011;exitDx=0;exitDy=0;exitPerimeter=0;" parent="1" source="lD98qSv4HnmiHmUkWl3R-31" edge="1">
                    <mxGeometry relative="1" as="geometry">
                        <mxPoint x="390" y="380" as="targetPoint"/>
                        <mxPoint x="389.99571428571426" y="520" as="sourcePoint"/>
                    </mxGeometry>
                </mxCell>
                <mxCell id="lD98qSv4HnmiHmUkWl3R-36" style="edgeStyle=orthogonalEdgeStyle;rounded=0;orthogonalLoop=1;jettySize=auto;html=1;exitX=0;exitY=0.5;exitDx=0;exitDy=0;entryX=1;entryY=0.75;entryDx=0;entryDy=0;" parent="1" source="lD98qSv4HnmiHmUkWl3R-35" target="lD98qSv4HnmiHmUkWl3R-20" edge="1">
                    <mxGeometry relative="1" as="geometry">
                        <Array as="points">
                            <mxPoint x="-40" y="260"/>
                            <mxPoint x="-40" y="370"/>
                        </Array>
                    </mxGeometry>
                </mxCell>
                <mxCell id="lD98qSv4HnmiHmUkWl3R-37" value="updates the text history" style="edgeLabel;html=1;align=center;verticalAlign=middle;resizable=0;points=[];" parent="lD98qSv4HnmiHmUkWl3R-36" vertex="1" connectable="0">
                    <mxGeometry x="0.1429" y="-1" relative="1" as="geometry">
                        <mxPoint x="30" y="-1" as="offset"/>
                    </mxGeometry>
                </mxCell>
                <mxCell id="lD98qSv4HnmiHmUkWl3R-35" value="Current Text Box&lt;br&gt;&lt;div&gt;NPC：This is an example&lt;/div&gt;&lt;div&gt;&lt;br&gt;&lt;/div&gt;" style="rounded=0;whiteSpace=wrap;html=1;align=left;verticalAlign=top;" parent="1" vertex="1">
                    <mxGeometry x="20" y="240" width="310" height="40" as="geometry"/>
                </mxCell>
                <mxCell id="lD98qSv4HnmiHmUkWl3R-33" style="edgeStyle=orthogonalEdgeStyle;rounded=0;orthogonalLoop=1;jettySize=auto;html=1;entryX=0;entryY=0.5;entryDx=0;entryDy=0;exitX=0;exitY=0.5;exitDx=0;exitDy=0;exitPerimeter=0;" parent="1" source="lD98qSv4HnmiHmUkWl3R-31" target="lD98qSv4HnmiHmUkWl3R-22" edge="1">
                    <mxGeometry relative="1" as="geometry">
                        <Array as="points">
                            <mxPoint x="260" y="545"/>
                            <mxPoint x="260" y="230"/>
                        </Array>
                    </mxGeometry>
                </mxCell>
                <mxCell id="lD98qSv4HnmiHmUkWl3R-34" value="updates what kanji&lt;div&gt;is displayed&lt;/div&gt;" style="edgeLabel;html=1;align=center;verticalAlign=middle;resizable=0;points=[];" parent="lD98qSv4HnmiHmUkWl3R-33" vertex="1" connectable="0">
                    <mxGeometry x="0.6997" relative="1" as="geometry">
                        <mxPoint y="252" as="offset"/>
                    </mxGeometry>
                </mxCell>
                <mxCell id="lD98qSv4HnmiHmUkWl3R-45" style="edgeStyle=orthogonalEdgeStyle;rounded=0;orthogonalLoop=1;jettySize=auto;html=1;endArrow=classicThin;endFill=1;entryX=1;entryY=0.5;entryDx=0;entryDy=0;" parent="1" source="lD98qSv4HnmiHmUkWl3R-31" target="lD98qSv4HnmiHmUkWl3R-25" edge="1">
                    <mxGeometry relative="1" as="geometry">
                        <Array as="points">
                            <mxPoint x="1160" y="545"/>
                            <mxPoint x="1160" y="195"/>
                        </Array>
                    </mxGeometry>
                </mxCell>
                <mxCell id="lD98qSv4HnmiHmUkWl3R-46" value="sends request to get data for" style="edgeLabel;html=1;align=center;verticalAlign=middle;resizable=0;points=[];" parent="lD98qSv4HnmiHmUkWl3R-45" vertex="1" connectable="0">
                    <mxGeometry x="-0.2701" y="-2" relative="1" as="geometry">
                        <mxPoint x="177" y="-2" as="offset"/>
                    </mxGeometry>
                </mxCell>
                <mxCell id="lD98qSv4HnmiHmUkWl3R-31" value="Clicking should send request&amp;nbsp;" style="shape=note;whiteSpace=wrap;html=1;backgroundOutline=1;darkOpacity=0.05;" parent="1" vertex="1">
                    <mxGeometry x="360" y="520" width="225" height="50" as="geometry"/>
                </mxCell>
                <mxCell id="lD98qSv4HnmiHmUkWl3R-50" value="Localized Data" style="rounded=0;whiteSpace=wrap;html=1;align=left;verticalAlign=top;" parent="1" vertex="1">
                    <mxGeometry x="842.5" y="60" width="215" height="80" as="geometry"/>
                </mxCell>
                <mxCell id="lD98qSv4HnmiHmUkWl3R-52" style="edgeStyle=orthogonalEdgeStyle;rounded=0;orthogonalLoop=1;jettySize=auto;html=1;" parent="1" source="lD98qSv4HnmiHmUkWl3R-51" target="lD98qSv4HnmiHmUkWl3R-50" edge="1">
                    <mxGeometry relative="1" as="geometry"/>
                </mxCell>
                <mxCell id="lD98qSv4HnmiHmUkWl3R-51" value="consideration if we should store&amp;nbsp;&lt;div&gt;text and image data?&lt;/div&gt;" style="shape=note;whiteSpace=wrap;html=1;backgroundOutline=1;darkOpacity=0.05;" parent="1" vertex="1">
                    <mxGeometry x="1160" y="77.5" width="230" height="45" as="geometry"/>
                </mxCell>
                <mxCell id="lD98qSv4HnmiHmUkWl3R-8" value="image" style="rounded=0;whiteSpace=wrap;html=1;" parent="1" vertex="1">
                    <mxGeometry x="860" y="92.5" width="50" height="30" as="geometry"/>
                </mxCell>
                <mxCell id="lD98qSv4HnmiHmUkWl3R-7" value="text" style="rounded=0;whiteSpace=wrap;html=1;" parent="1" vertex="1">
                    <mxGeometry x="937.5" y="92.5" width="50" height="30" as="geometry"/>
                </mxCell>
            </root>
        </mxGraphModel>
    </diagram>
</mxfile>